<?xml version="1.0" standalone="no"?>
<!DOCTYPE svg PUBLIC "-//W3C//DTD SVG 1.1//EN" "http://www.w3.org/Graphics/SVG/1.1/DTD/svg11.dtd">
<!--Generator: Xara Designer (www.xara.com), SVG filter version: 6.1.0.6-->
<svg stroke-width="0.501" stroke-linejoin="bevel" fill-rule="evenodd" xmlns:xlink="http://www.w3.org/1999/xlink" xmlns="http://www.w3.org/2000/svg" version="1.1" overflow="visible" width="384pt" height="384pt" viewBox="0 0 384 384">
 <defs>
	</defs>
 <g id="Document" fill="none" stroke="black" font-family="Times New Roman" font-size="16" transform="scale(1 -1)">
  <g id="Spread" transform="translate(0 -384)">
   <g id="Layer 1">
    <path d="M 75.774,308.231 C 139.926,372.385 244.078,372.385 308.23,308.231 C 372.388,244.077 372.388,139.925 308.23,75.771 C 244.078,11.617 139.926,11.617 75.774,75.771 C 11.616,139.925 11.616,244.077 75.774,308.231 Z" stroke-width="53.811" stroke="#ffffff" fill="#ffffff" stroke-linejoin="round" stroke-linecap="round" marker-start="none" marker-end="none" stroke-miterlimit="79.8403193612775"/>
    <path d="M 75.774,307.751 C 139.926,371.905 244.078,371.905 308.23,307.751 C 372.388,243.597 372.388,139.446 308.23,75.292 C 244.078,11.138 139.926,11.138 75.774,75.292 C 11.616,139.446 11.616,243.597 75.774,307.751 Z" fill="#ffffff" stroke="#04a4bb" stroke-width="15.739" stroke-linejoin="round" stroke-linecap="round" marker-start="none" marker-end="none" stroke-miterlimit="79.8403193612775"/>
    <path d="M 95.671,95.182 C 80.414,110.437 69.537,128.414 63.034,147.558 L 79.935,147.558 C 85.801,132.561 94.79,118.515 106.899,106.412 C 153.871,59.433 230.139,59.433 277.118,106.412 C 289.224,118.515 298.212,132.561 304.073,147.558 L 320.972,147.558 C 314.477,128.414 303.594,110.437 288.343,95.182 C 235.166,42.003 148.849,42.003 95.671,95.182 Z" fill="#36b7c9" stroke="none" stroke-width="1.966" marker-start="none" marker-end="none" stroke-miterlimit="79.8403193612775"/>
    <path d="M 121.663,121.176 C 113.734,129.094 107.425,138.026 102.737,147.558 L 120.713,147.558 C 124.06,142.13 128.084,137.006 132.792,132.307 C 165.475,99.622 218.539,99.622 251.221,132.307 C 255.927,137.006 259.951,142.13 263.298,147.558 L 281.269,147.558 C 276.582,138.026 270.272,129.094 262.351,121.176 C 223.523,82.344 160.491,82.344 121.663,121.176 Z" fill="#68c8d6" stroke="none" stroke-width="1.966" marker-start="none" marker-end="none" stroke-miterlimit="79.8403193612775"/>
    <g id="Group" fill-rule="nonzero" stroke-linejoin="round" stroke-linecap="round" stroke="none" stroke-width="0.507" fill="#000000" stroke-miterlimit="79.8403193612775">
     <g id="Group_1">
      <path d="M 89.883,257.726 C 84.79,257.729 80.78,256.098 77.854,252.837 C 74.926,249.576 73.464,245.11 73.464,239.442 C 73.464,233.644 74.843,229.144 77.602,225.938 C 80.365,222.734 84.307,221.131 89.44,221.131 C 92.849,221.131 95.98,221.568 98.833,222.439 L 98.833,219.936 C 96.146,218.992 92.794,218.519 88.771,218.519 C 83.068,218.519 78.574,220.364 75.296,224.051 C 72.019,227.734 70.379,232.882 70.379,239.499 C 70.379,243.631 71.162,247.27 72.727,250.419 C 74.291,253.567 76.542,256 79.477,257.712 C 82.416,259.427 85.827,260.282 89.719,260.282 C 93.684,260.282 97.228,259.541 100.36,258.062 L 99.222,255.504 C 96.257,256.986 93.145,257.729 89.883,257.726 Z" marker-start="none" marker-end="none"/>
      <path d="M 127.455,233.412 L 110.948,233.412 L 105.282,219.076 L 102.141,219.076 L 118.479,259.865 L 120.287,259.865 L 136.288,219.076 L 133.094,219.076 L 127.455,233.412 Z M 111.976,235.97 L 126.509,235.97 L 120.981,250.612 C 120.516,251.763 119.958,253.356 119.312,255.395 C 118.813,253.613 118.268,252.002 117.674,250.557 L 111.976,235.97 Z" marker-start="none" marker-end="none"/>
      <path d="M 148.662,219.076 L 145.801,219.076 L 145.801,257.031 L 132.6,257.031 L 132.6,259.699 L 161.86,259.699 L 161.86,257.031 L 148.662,257.031 L 148.662,219.076 Z" marker-start="none" marker-end="none"/>
      <path d="M 183.488,233.412 L 166.982,233.412 L 161.313,219.076 L 158.172,219.076 L 174.512,259.865 L 176.319,259.865 L 192.321,219.076 L 189.125,219.076 L 183.488,233.412 Z M 168.008,235.97 L 182.54,235.97 L 177.013,250.612 C 176.55,251.763 175.993,253.356 175.344,255.395 C 174.845,253.613 174.299,252.002 173.706,250.557 L 168.008,235.97 Z" marker-start="none" marker-end="none"/>
      <path d="M 198.074,219.076 L 198.074,259.699 L 200.911,259.699 L 200.911,221.745 L 220.277,221.745 L 220.277,219.076 L 198.074,219.076 Z" marker-start="none" marker-end="none"/>
      <path d="M 260.297,239.442 C 260.297,232.996 258.685,227.899 255.461,224.147 C 252.237,220.393 247.792,218.519 242.126,218.519 C 236.472,218.519 232.038,220.393 228.811,224.147 C 225.59,227.899 223.979,233.015 223.979,239.499 C 223.979,245.962 225.603,251.054 228.854,254.766 C 232.106,258.481 236.548,260.337 242.18,260.337 C 247.848,260.337 252.283,258.472 255.489,254.741 C 258.696,251.007 260.297,245.906 260.297,239.442 Z M 227.065,239.442 C 227.065,233.628 228.359,229.128 230.951,225.951 C 233.546,222.775 237.272,221.186 242.126,221.186 C 247.013,221.186 250.75,222.761 253.336,225.911 C 255.92,229.058 257.209,233.572 257.209,239.442 C 257.209,245.297 255.92,249.785 253.336,252.906 C 250.75,256.026 247.031,257.588 242.18,257.588 C 237.343,257.588 233.616,256.014 230.993,252.862 C 228.374,249.714 227.065,245.24 227.065,239.442 Z" marker-start="none" marker-end="none"/>
      <path d="M 285.616,239.553 L 300.59,239.553 L 300.59,221.02 C 296.663,219.354 292.244,218.519 287.335,218.519 C 280.928,218.519 276.013,220.332 272.594,223.951 C 269.177,227.576 267.468,232.697 267.468,239.331 C 267.468,243.464 268.316,247.126 270.01,250.322 C 271.704,253.518 274.129,255.984 277.292,257.726 C 280.447,259.47 284.075,260.337 288.171,260.337 C 292.597,260.337 296.572,259.527 300.09,257.894 L 298.95,255.336 C 295.43,256.966 291.78,257.782 288.004,257.785 C 282.65,257.782 278.402,256.127 275.262,252.825 C 272.122,249.517 270.553,245.055 270.553,239.442 C 270.553,233.332 272.042,228.729 275.028,225.648 C 278.009,222.562 282.389,221.02 288.171,221.02 C 291.911,221.02 295.089,221.547 297.698,222.606 L 297.698,236.887 L 285.616,236.887 L 285.616,239.553 Z" marker-start="none" marker-end="none"/>
      <path d="M 310.787,219.076 L 310.787,259.699 L 313.625,259.699 L 313.625,219.076 L 310.787,219.076 Z" marker-start="none" marker-end="none"/>
     </g>
    </g>
    <g id="Group_2" fill-rule="nonzero" stroke-linejoin="round" stroke-linecap="round" stroke="none" stroke-width="0.507" fill="#000000" stroke-miterlimit="79.8403193612775">
     <g id="Group_3">
      <path d="M 60.984,160.913 L 60.984,201.537 L 63.817,201.537 L 63.817,160.913 L 60.984,160.913 Z" marker-start="none" marker-end="none"/>
      <path d="M 93.191,160.913 L 78.045,198.425 L 77.824,198.425 C 77.971,196.129 78.045,193.777 78.045,191.368 L 78.045,160.913 L 75.323,160.913 L 75.323,201.537 L 79.714,201.537 L 94.109,165.806 L 94.274,165.806 L 108.666,201.537 L 112.945,201.537 L 112.945,160.913 L 110.084,160.913 L 110.084,191.702 C 110.084,193.85 110.197,196.074 110.417,198.37 L 110.197,198.37 L 94.995,160.913 L 93.191,160.913 Z" marker-start="none" marker-end="none"/>
      <path d="M 148.877,189.867 C 148.877,185.941 147.544,182.933 144.877,180.837 C 142.209,178.743 138.428,177.698 133.541,177.698 L 127.258,177.698 L 127.258,160.913 L 124.424,160.913 L 124.424,201.537 L 134.372,201.537 C 144.041,201.541 148.877,197.649 148.877,189.867 Z M 127.258,180.144 L 132.844,180.144 C 137.421,180.144 140.724,180.896 142.763,182.407 C 144.801,183.915 145.818,186.364 145.821,189.758 C 145.818,192.889 144.858,195.208 142.928,196.716 C 141.006,198.226 138.02,198.985 133.983,198.985 L 127.258,198.985 L 127.258,180.144 Z" marker-start="none" marker-end="none"/>
      <path d="M 191.864,181.279 C 191.864,174.837 190.254,169.737 187.032,165.987 C 183.805,162.235 179.361,160.359 173.693,160.359 C 168.045,160.359 163.605,162.235 160.383,165.987 C 157.16,169.737 155.548,174.853 155.548,181.336 C 155.548,187.804 157.174,192.891 160.425,196.605 C 163.674,200.321 168.117,202.179 173.749,202.179 C 179.416,202.179 183.854,200.31 187.057,196.579 C 190.265,192.845 191.864,187.747 191.864,181.279 Z M 158.634,181.279 C 158.634,175.466 159.931,170.969 162.522,167.793 C 165.115,164.613 168.841,163.024 173.693,163.024 C 178.584,163.024 182.322,164.599 184.905,167.75 C 187.491,170.901 188.783,175.412 188.783,181.279 C 188.783,187.134 187.491,191.623 184.905,194.743 C 182.322,197.867 178.605,199.427 173.749,199.427 C 168.914,199.427 165.189,197.853 162.566,194.704 C 159.943,191.554 158.634,187.081 158.634,181.279 Z" marker-start="none" marker-end="none"/>
      <path d="M 204.04,178.614 L 204.04,160.913 L 201.205,160.913 L 201.205,201.537 L 210.874,201.537 C 215.913,201.541 219.637,200.608 222.044,198.746 C 224.456,196.884 225.659,194.081 225.659,190.34 C 225.659,187.617 224.942,185.324 223.503,183.449 C 222.068,181.578 219.887,180.238 216.96,179.418 L 227.994,160.913 L 224.601,160.913 L 214.127,178.614 L 204.04,178.614 Z M 204.04,181.058 L 211.792,181.058 C 215.218,181.058 217.876,181.824 219.77,183.352 C 221.657,184.881 222.6,187.134 222.602,190.12 C 222.6,193.212 221.672,195.46 219.823,196.87 C 217.968,198.279 214.952,198.985 210.765,198.985 L 204.04,198.985 L 204.04,181.058 Z" marker-start="none" marker-end="none"/>
      <path d="M 245.607,160.913 L 242.749,160.913 L 242.749,198.871 L 229.549,198.871 L 229.549,201.537 L 258.807,201.537 L 258.807,198.871 L 245.607,198.871 L 245.607,160.913 Z" marker-start="none" marker-end="none"/>
      <path d="M 287.042,160.913 L 264.841,160.913 L 264.841,201.537 L 287.042,201.537 L 287.042,198.927 L 267.675,198.927 L 267.675,183.561 L 285.955,183.561 L 285.955,180.95 L 267.675,180.95 L 267.675,163.525 L 287.042,163.525 L 287.042,160.913 Z" marker-start="none" marker-end="none"/>
      <path d="M 299.072,178.614 L 299.072,160.913 L 296.238,160.913 L 296.238,201.537 L 305.908,201.537 C 310.949,201.541 314.673,200.608 317.079,198.746 C 319.487,196.884 320.692,194.081 320.692,190.34 C 320.692,187.617 319.975,185.324 318.537,183.449 C 317.102,181.578 314.919,180.238 311.994,179.418 L 323.026,160.913 L 319.637,160.913 L 309.16,178.614 L 299.072,178.614 Z M 299.072,181.058 L 306.827,181.058 C 310.253,181.058 312.911,181.824 314.802,183.352 C 316.691,184.881 317.633,187.134 317.638,190.12 C 317.633,193.212 316.707,195.46 314.859,196.87 C 313.004,198.279 309.986,198.985 305.798,198.985 L 299.072,198.985 L 299.072,181.058 Z" marker-start="none" marker-end="none"/>
     </g>
    </g>
   </g>
  </g>
 </g>
</svg>
